<mxfile host="app.diagrams.net" agent="Mozilla/5.0 (X11; Linux x86_64) AppleWebKit/537.36 (KHTML, like Gecko) Chrome/124.0.0.0 Safari/537.36" version="28.2.8">
  <diagram name="Page-1" id="oLho_GyT66cktcUPx0cA">
    <mxGraphModel dx="1425" dy="821" grid="1" gridSize="10" guides="1" tooltips="1" connect="1" arrows="1" fold="1" page="1" pageScale="1" pageWidth="850" pageHeight="1100" math="0" shadow="0">
      <root>
        <mxCell id="0" />
        <mxCell id="1" parent="0" />
        <mxCell id="bZCz6x34Suw0sgDJHS5u-1" value="ℹ️ntro" style="rounded=0;whiteSpace=wrap;html=1;" vertex="1" parent="1">
          <mxGeometry x="90" y="60" width="130" height="60" as="geometry" />
        </mxCell>
        <mxCell id="bZCz6x34Suw0sgDJHS5u-3" value="&lt;div&gt;🔥&lt;br&gt;&lt;/div&gt;Warmup" style="rounded=0;whiteSpace=wrap;html=1;" vertex="1" parent="1">
          <mxGeometry x="305" y="60" width="120" height="60" as="geometry" />
        </mxCell>
        <mxCell id="bZCz6x34Suw0sgDJHS5u-6" value="" style="endArrow=classic;html=1;rounded=0;exitX=1;exitY=0.5;exitDx=0;exitDy=0;entryX=0;entryY=0.5;entryDx=0;entryDy=0;" edge="1" parent="1" source="bZCz6x34Suw0sgDJHS5u-1" target="bZCz6x34Suw0sgDJHS5u-3">
          <mxGeometry width="50" height="50" relative="1" as="geometry">
            <mxPoint x="400" y="150" as="sourcePoint" />
            <mxPoint x="450" y="100" as="targetPoint" />
          </mxGeometry>
        </mxCell>
        <mxCell id="bZCz6x34Suw0sgDJHS5u-7" value="&lt;div&gt;🗣️&lt;br&gt;&lt;/div&gt;Hack 0..3" style="rounded=0;whiteSpace=wrap;html=1;" vertex="1" parent="1">
          <mxGeometry x="530" y="60" width="120" height="60" as="geometry" />
        </mxCell>
        <mxCell id="bZCz6x34Suw0sgDJHS5u-8" value="" style="endArrow=classic;html=1;rounded=0;exitX=1;exitY=0.5;exitDx=0;exitDy=0;" edge="1" parent="1">
          <mxGeometry width="50" height="50" relative="1" as="geometry">
            <mxPoint x="425" y="89.5" as="sourcePoint" />
            <mxPoint x="530" y="90" as="targetPoint" />
          </mxGeometry>
        </mxCell>
        <mxCell id="bZCz6x34Suw0sgDJHS5u-9" value="&lt;div&gt;🎤&lt;br&gt;&lt;/div&gt;Open(ish) Mic" style="rounded=0;whiteSpace=wrap;html=1;" vertex="1" parent="1">
          <mxGeometry x="530" y="160" width="120" height="60" as="geometry" />
        </mxCell>
        <mxCell id="bZCz6x34Suw0sgDJHS5u-10" value="&lt;div&gt;🗪&amp;nbsp;🚽&amp;nbsp;🚰&lt;br&gt;&lt;/div&gt;Break" style="rounded=0;whiteSpace=wrap;html=1;" vertex="1" parent="1">
          <mxGeometry x="305" y="160" width="120" height="60" as="geometry" />
        </mxCell>
        <mxCell id="bZCz6x34Suw0sgDJHS5u-11" value="" style="endArrow=classic;html=1;rounded=0;entryX=0.5;entryY=0;entryDx=0;entryDy=0;exitX=0.5;exitY=1;exitDx=0;exitDy=0;" edge="1" parent="1" source="bZCz6x34Suw0sgDJHS5u-7" target="bZCz6x34Suw0sgDJHS5u-9">
          <mxGeometry width="50" height="50" relative="1" as="geometry">
            <mxPoint x="590" y="130" as="sourcePoint" />
            <mxPoint x="450" y="100" as="targetPoint" />
          </mxGeometry>
        </mxCell>
        <mxCell id="bZCz6x34Suw0sgDJHS5u-13" value="&lt;div&gt;🗣️&lt;br&gt;&lt;/div&gt;Hack 4..7" style="rounded=0;whiteSpace=wrap;html=1;" vertex="1" parent="1">
          <mxGeometry x="90" y="160" width="130" height="60" as="geometry" />
        </mxCell>
        <mxCell id="bZCz6x34Suw0sgDJHS5u-17" value="" style="rhombus;whiteSpace=wrap;html=1;" vertex="1" parent="1">
          <mxGeometry x="150" y="10" width="80" height="80" as="geometry" />
        </mxCell>
        <mxCell id="bZCz6x34Suw0sgDJHS5u-18" value="You are here" style="text;html=1;whiteSpace=wrap;strokeColor=none;fillColor=none;align=center;verticalAlign=middle;rounded=0;" vertex="1" parent="1">
          <mxGeometry x="160" y="35" width="60" height="30" as="geometry" />
        </mxCell>
        <mxCell id="bZCz6x34Suw0sgDJHS5u-19" value="" style="endArrow=classic;html=1;rounded=0;exitX=0;exitY=0.5;exitDx=0;exitDy=0;entryX=1;entryY=0.5;entryDx=0;entryDy=0;" edge="1" parent="1" source="bZCz6x34Suw0sgDJHS5u-9" target="bZCz6x34Suw0sgDJHS5u-10">
          <mxGeometry width="50" height="50" relative="1" as="geometry">
            <mxPoint x="322.5" y="290" as="sourcePoint" />
            <mxPoint x="407.5" y="290" as="targetPoint" />
          </mxGeometry>
        </mxCell>
        <mxCell id="bZCz6x34Suw0sgDJHS5u-20" value="" style="endArrow=classic;html=1;rounded=0;exitX=0;exitY=0.5;exitDx=0;exitDy=0;entryX=1;entryY=0.5;entryDx=0;entryDy=0;" edge="1" parent="1" source="bZCz6x34Suw0sgDJHS5u-10" target="bZCz6x34Suw0sgDJHS5u-13">
          <mxGeometry width="50" height="50" relative="1" as="geometry">
            <mxPoint x="300" y="240" as="sourcePoint" />
            <mxPoint x="385" y="240" as="targetPoint" />
          </mxGeometry>
        </mxCell>
        <mxCell id="bZCz6x34Suw0sgDJHS5u-21" value="&lt;div&gt;🗳️&lt;br&gt;&lt;/div&gt;Voting" style="rounded=0;whiteSpace=wrap;html=1;" vertex="1" parent="1">
          <mxGeometry x="90" y="270" width="130" height="60" as="geometry" />
        </mxCell>
        <mxCell id="bZCz6x34Suw0sgDJHS5u-22" value="&amp;nbsp;Trophy Handover&lt;br&gt;&lt;div&gt;&lt;span style=&quot;background-color: transparent; color: light-dark(rgb(0, 0, 0), rgb(255, 255, 255));&quot;&gt;Ritual&amp;nbsp;&lt;/span&gt;🏆&lt;br&gt;&lt;/div&gt;" style="rounded=0;whiteSpace=wrap;html=1;" vertex="1" parent="1">
          <mxGeometry x="305" y="270" width="130" height="60" as="geometry" />
        </mxCell>
        <mxCell id="bZCz6x34Suw0sgDJHS5u-23" value="" style="endArrow=classic;html=1;rounded=0;entryX=0.5;entryY=0;entryDx=0;entryDy=0;exitX=0.5;exitY=1;exitDx=0;exitDy=0;" edge="1" parent="1" source="bZCz6x34Suw0sgDJHS5u-13" target="bZCz6x34Suw0sgDJHS5u-21">
          <mxGeometry width="50" height="50" relative="1" as="geometry">
            <mxPoint x="150" y="230" as="sourcePoint" />
            <mxPoint x="180" y="260" as="targetPoint" />
          </mxGeometry>
        </mxCell>
        <mxCell id="bZCz6x34Suw0sgDJHS5u-24" value="" style="endArrow=classic;html=1;rounded=0;entryX=0;entryY=0.5;entryDx=0;entryDy=0;exitX=1;exitY=0.5;exitDx=0;exitDy=0;" edge="1" parent="1" source="bZCz6x34Suw0sgDJHS5u-21" target="bZCz6x34Suw0sgDJHS5u-22">
          <mxGeometry width="50" height="50" relative="1" as="geometry">
            <mxPoint x="230" y="360" as="sourcePoint" />
            <mxPoint x="230" y="400" as="targetPoint" />
          </mxGeometry>
        </mxCell>
        <mxCell id="bZCz6x34Suw0sgDJHS5u-26" value="&lt;div&gt;🏓&lt;br&gt;&lt;/div&gt;BLTT" style="rounded=0;whiteSpace=wrap;html=1;" vertex="1" parent="1">
          <mxGeometry x="525" y="270" width="130" height="60" as="geometry" />
        </mxCell>
        <mxCell id="bZCz6x34Suw0sgDJHS5u-28" value="" style="endArrow=classic;html=1;rounded=0;entryX=0;entryY=0.5;entryDx=0;entryDy=0;exitX=1;exitY=0.5;exitDx=0;exitDy=0;" edge="1" parent="1" target="bZCz6x34Suw0sgDJHS5u-26">
          <mxGeometry width="50" height="50" relative="1" as="geometry">
            <mxPoint x="435" y="299.66" as="sourcePoint" />
            <mxPoint x="520" y="299.66" as="targetPoint" />
          </mxGeometry>
        </mxCell>
        <mxCell id="bZCz6x34Suw0sgDJHS5u-29" value="" style="endArrow=classic;html=1;rounded=0;exitX=1;exitY=0.5;exitDx=0;exitDy=0;entryX=0;entryY=0.5;entryDx=0;entryDy=0;" edge="1" parent="1" source="bZCz6x34Suw0sgDJHS5u-26" target="bZCz6x34Suw0sgDJHS5u-1">
          <mxGeometry width="50" height="50" relative="1" as="geometry">
            <mxPoint x="650" y="310" as="sourcePoint" />
            <mxPoint x="40" y="90" as="targetPoint" />
            <Array as="points">
              <mxPoint x="680" y="300" />
              <mxPoint x="680" y="360" />
              <mxPoint x="60" y="360" />
              <mxPoint x="60" y="90" />
            </Array>
          </mxGeometry>
        </mxCell>
        <mxCell id="bZCz6x34Suw0sgDJHS5u-32" value="&amp;nbsp; BHNT++&amp;nbsp;&amp;nbsp;" style="edgeLabel;html=1;align=center;verticalAlign=middle;resizable=0;points=[];" vertex="1" connectable="0" parent="bZCz6x34Suw0sgDJHS5u-29">
          <mxGeometry x="-0.156" relative="1" as="geometry">
            <mxPoint as="offset" />
          </mxGeometry>
        </mxCell>
      </root>
    </mxGraphModel>
  </diagram>
</mxfile>
